<?xml version="1.0" encoding="UTF-8"?>
<!DOCTYPE svg PUBLIC "-//W3C//DTD SVG 1.1//EN" "http://www.w3.org/Graphics/SVG/1.1/DTD/svg11.dtd">
<!-- Creator: CorelDRAW 2020 (64 Bit) -->
<svg xmlns="http://www.w3.org/2000/svg" xml:space="preserve" width="297mm" height="210mm" version="1.1" style="shape-rendering:geometricPrecision; text-rendering:geometricPrecision; image-rendering:optimizeQuality; fill-rule:evenodd; clip-rule:evenodd"
viewBox="0 0 29700 21000"
 xmlns:xlink="http://www.w3.org/1999/xlink"
 xmlns:xodm="http://www.corel.com/coreldraw/odm/2003">
 <defs>
  <style type="text/css">
   <![CDATA[
    .str1 {stroke:#CACBCD;stroke-width:22.23;stroke-miterlimit:22.926}
    .str0 {stroke:#FEFEFE;stroke-width:20;stroke-miterlimit:22.9256}
    .fil0 {fill:#FEFEFE}
    .fil7 {fill:#F8F8F8}
    .fil5 {fill:#E3E4E5}
    .fil4 {fill:#CACBCD}
    .fil2 {fill:#90C1D2}
    .fil8 {fill:#24718C}
    .fil6 {fill:#313645}
    .fil1 {fill:#FEFEFE;fill-rule:nonzero}
    .fil3 {fill:#CACBCD;fill-rule:nonzero}
   ]]>
  </style>
     <clipPath id="id0">
      <path d="M4745.88 9859.46l-3.84 258.91 32.79 0 3.91 -258.91 -32.86 0z"/>
     </clipPath>
     <clipPath id="id1">
      <path d="M4624.56 9269.24l-1.48 100.47 65.38 0 1.42 -100.47 -65.32 0z"/>
     </clipPath>
     <clipPath id="id2">
      <path d="M5322.64 10563.6l-0.93 67.07 33.28 0 1 -67.07 -33.35 0z"/>
     </clipPath>
     <clipPath id="id3">
      <path d="M8044.94 10640.56l-1.01 60.28 0 3.55 73.87 0 0.93 -63.83 -73.79 0z"/>
     </clipPath>
     <clipPath id="id4">
      <path d="M7696.76 10821.11l-0.5 35.59 73.35 0 0.53 -35.59 -73.38 0z"/>
     </clipPath>
 </defs>
 <g id="Camada_x0020_1">
  <metadata id="CorelCorpID_0Corel-Layer"/>
  <g id="_2697142146608">
   <g>
    <g>
     <path class="fil0" d="M12409.02 10419.69l3632.52 0c768.32,0 1041.58,-298.71 1041.58,-857.97l0 0 0 -2296.49 -636.05 0 0 2270.92c0,174.95 -123.81,264.61 -401.23,264.61l0 0 -1506.77 0 0 -2535.53 -618.92 0 0 2535.53 -1515.41 0c-277.37,0 -401.17,-89.66 -401.17,-264.61l0 0 0 -2270.92 -636.06 0 0 1.94 0 2294.55c0,559.26 273.21,857.97 1041.51,857.97z"/>
     <polygon class="fil0" points="17638.02,10419.69 21526.69,10419.69 21526.69,9800.76 18256.97,9800.76 18256.97,8874.54 20924.75,8874.54 20924.75,8298.29 18256.97,8298.29 18256.97,7884.18 21518.12,7884.18 21518.12,7265.23 17638.02,7265.23 "/>
     <path class="fil0" d="M21996.19 10419.69l2902.58 0c670.15,0 981.73,-247.56 981.73,-657.32l0 0 0 -508c0,-273.13 -136.51,-397.01 -328.62,-461.03l0 0c175,-63.95 320.1,-192.06 320.1,-418.22l0 0 0 -448.21c0,-443.9 -303.06,-661.68 -973.21,-661.68l0 0 -2902.58 0 0 3154.46zm618.92 -2535.51l2305 0c217.65,0 341.46,55.48 341.46,170.77l0 0 0 303.06c0,98.25 -93.9,153.68 -332.99,153.68l0 0 -2313.47 0 0 -627.51zm0 1199.47l2270.86 0c238.97,0 371.44,59.72 371.44,192.13l0 0 0 298.69c0,183.61 -123.88,226.29 -379.98,226.29l0 0 -2262.32 0 0 -717.11z"/>
    </g>
    <g>
     <path class="fil1" d="M13544.95 12882.89c0,110.24 -25.94,219.13 -77.14,326.76 -51.21,107.63 -123.26,198.41 -215.26,273.57 -101.8,81.06 -219.75,143.97 -354.65,190 -134.81,45.36 -296.89,68.07 -486.9,68.07 -204.19,0 -387.05,-18.8 -549.74,-57.05 -162.77,-37.63 -328.71,-94.02 -496.62,-169.17l0 -470.72 26.56 0c142.61,118.63 307.98,210.66 495.37,275.49 187.33,64.2 363.66,96.68 528.34,96.68 232.77,0 414.24,-43.49 543.97,-130.96 129.65,-87.6 194.48,-204.27 194.48,-349.54 0,-125.05 -30.48,-217.75 -92.08,-277.43 -60.9,-59.66 -154.3,-105.64 -280.03,-138.68 -94.63,-25.37 -197.79,-46.1 -308.6,-62.27 -110.93,-16.86 -228.26,-37.65 -352.14,-62.91 -250.8,-53.19 -436.88,-143.96 -557.46,-272.32 -121.27,-129.04 -181.55,-296.27 -181.55,-502.45 0,-237.25 99.86,-431.1 300.13,-582.18 199.72,-151.67 453.87,-226.89 761.78,-226.89 198.41,0 381.26,18.79 546.57,56.42 166.01,38.27 313.15,84.87 440.87,140.69l0 444.71 -26.63 0c-107.57,-91.39 -248.92,-167.24 -424.63,-226.91 -175,-60.28 -354.63,-90.14 -538.1,-90.14 -201.65,0 -363.04,41.5 -485.61,125.17 -121.89,83.63 -183.47,191.19 -183.47,322.85 0,118.02 30.47,210.1 91.39,277.49 60.97,66.75 167.98,117.97 320.98,153.61 81,17.55 196.41,39.57 345.54,64.83 149.77,25.32 276.19,51.27 379.91,77.83 210.71,55.75 368.95,140.05 475.2,252.16 106.4,112.87 159.52,270.33 159.52,473.29z"/>
     <path class="fil1" d="M15769.32 13690.06l-355.24 0 0 -226.27c-31.8,22.08 -74.6,51.88 -128.43,90.77 -53.81,38.27 -105.64,68.75 -156.22,92.03 -59.66,29.24 -128.36,53.19 -205.5,72.66 -77.16,20.09 -167.93,29.8 -271.7,29.8 -191.2,0 -353.27,-63.52 -486.22,-189.88 -132.9,-126.49 -199.04,-287.95 -199.04,-484.42 0,-160.77 34.34,-291.05 103.1,-390.24 69.37,-99.85 167.92,-177.61 295.66,-234.66 129.02,-57.06 283.94,-95.94 465.51,-116.05 180.86,-20.16 375.4,-35.71 582.84,-45.41l0 -55.12c0,-81.02 -14.25,-148.46 -42.81,-201.58 -28.5,-53.21 -69.38,-94.63 -122.51,-125.18 -50.58,-29.12 -111.55,-48.61 -182.17,-58.92 -70.74,-9.77 -145.27,-14.94 -222.43,-14.94 -93.31,0 -197.72,12.33 -313.13,36.96 -115.36,24.57 -234.07,60.23 -357.26,106.95l-18.78 0 0 -362.41c69.38,-18.8 169.91,-40.19 302.13,-62.91 131.58,-22.64 261.24,-34.33 389.04,-34.33 149.69,0 279.35,12.31 390.29,37.56 110.86,24.64 206.8,66.83 287.8,125.82 79.77,58.29 140.69,133.51 182.18,226.22 42.19,92.77 62.89,206.85 62.89,343.62l0 1439.93zm-355.24 -522.49l0 -590.69c-108.94,6.47 -237.3,16.24 -384.51,28.57 -147.82,12.93 -264.49,31.11 -350.71,55.11 -102.42,29.19 -185.41,74.55 -248.3,136.14 -63.53,60.91 -95.26,145.83 -95.26,253.47 0,121.26 36.9,212.65 110.18,274.26 73.22,61.58 185.41,92.08 336.48,92.08 125.11,0 239.84,-24.02 343.55,-73.3 103.72,-48.59 199.72,-106.95 288.57,-175.64z"/>
     <path class="fil1" d="M18026.07 13557.12c-119.25,57.12 -232.05,101.16 -339.02,132.96 -106.94,31.73 -220.41,47.28 -340.99,47.28 -153,0 -293.73,-22.03 -421.46,-67.44 -128.35,-44.67 -237.24,-112.8 -328.63,-204.19 -92.77,-90.78 -164.07,-206.19 -214.65,-345.55 -50.58,-139.38 -75.84,-302.12 -75.84,-488.15 0,-346.87 95.31,-619.19 285.89,-816.91 190.63,-197.1 442.17,-296.27 754.69,-296.27 121.81,0 241.14,17.55 357.85,51.19 117.36,34.34 224.99,76.53 322.16,125.75l0 396.82 -18.78 0c-108.88,-84.94 -221.69,-149.75 -337.1,-195.8 -116.03,-45.41 -228.88,-68.06 -339.07,-68.06 -202.96,0 -362.41,68.06 -479.76,204.19 -117.33,136.14 -175.69,335.85 -175.69,599.09 0,256.08 57.05,452.49 171.85,589.93 114.72,137.51 275.49,206.19 483.6,206.19 71.99,0 145.27,-9.7 220.49,-28.56 74.47,-19.41 141.25,-44.05 200.91,-74.53 51.88,-26.58 100.47,-54.44 146.52,-84.25 45.41,-29.85 81.69,-55.13 108.25,-77.14l18.78 0 0 393.45z"/>
     <path class="fil1" d="M20292.01 12630.11c0,345.54 -88.78,618.43 -265.79,818.76 -177.62,200.35 -414.91,300.13 -712.51,300.13 -300.18,0 -538.17,-99.78 -715.11,-300.13 -176.33,-200.33 -264.49,-473.22 -264.49,-818.76 0,-345.62 88.16,-618.51 264.49,-819.52 176.94,-200.97 414.93,-300.83 715.11,-300.83 297.6,0 534.89,99.86 712.51,300.83 177.01,201.01 265.79,473.9 265.79,819.52zm-368.19 0c0,-274.95 -53.82,-479.15 -161.53,-612.72 -107.56,-133.58 -257.31,-200.33 -448.58,-200.33 -193.8,0 -344.24,66.75 -451.25,200.33 -106.95,133.57 -160.14,337.77 -160.14,612.72 0,265.77 53.81,467.43 161.44,604.8 107.63,137.51 257.4,206.25 449.95,206.25 189.96,0 339.1,-68.13 447.35,-204.26 108.25,-136.19 162.76,-338.46 162.76,-606.79z"/>
     <polygon class="fil1" points="21206.15,13690.04 20848.97,13690.04 20848.97,10734.39 21206.15,10734.39 "/>
     <path class="fil1" d="M23560.85 13690.06l-355.26 0 0 -226.27c-31.8,22.08 -74.6,51.88 -128.41,90.77 -53.83,38.27 -105.64,68.75 -156.24,92.03 -59.66,29.24 -128.34,53.19 -205.5,72.66 -77.14,20.09 -167.91,29.8 -271.7,29.8 -191.18,0 -353.25,-63.52 -486.21,-189.88 -132.84,-126.49 -199.05,-287.95 -199.05,-484.42 0,-160.77 34.36,-291.05 103.11,-390.24 69.36,-99.85 167.91,-177.61 295.65,-234.66 129.04,-57.06 283.96,-95.94 465.51,-116.05 180.86,-20.16 375.35,-35.71 582.84,-45.41l0 -55.12c0,-81.02 -14.25,-148.46 -42.75,-201.58 -28.55,-53.21 -69.43,-94.63 -122.55,-125.18 -50.59,-29.12 -111.57,-48.61 -182.19,-58.92 -70.67,-9.77 -145.2,-14.94 -222.41,-14.94 -93.33,0 -197.73,12.33 -313.15,36.96 -115.34,24.57 -234.05,60.23 -357.24,106.95l-18.8 0 0 -362.41c69.38,-18.8 169.93,-40.19 302.13,-62.91 131.6,-22.64 261.25,-34.33 389.06,-34.33 149.74,0 279.34,12.31 390.27,37.56 110.88,24.64 206.82,66.83 287.82,125.82 79.75,58.29 140.74,133.51 182.17,226.22 42.18,92.77 62.9,206.85 62.9,343.62l0 1439.93zm-355.26 -522.49l0 -590.69c-108.89,6.47 -237.3,16.24 -384.51,28.57 -147.82,12.93 -264.47,31.11 -350.71,55.11 -102.4,29.19 -185.39,74.55 -248.3,136.14 -63.53,60.91 -95.25,145.83 -95.25,253.47 0,121.26 36.89,212.65 110.19,274.26 73.22,61.58 185.39,92.08 336.46,92.08 125.11,0 239.84,-24.02 343.56,-73.3 103.71,-48.59 199.71,-106.95 288.56,-175.64z"/>
     <path class="fil1" d="M25764.47 13078.72c0,193.19 -80.39,352.64 -240.47,476.51 -160.14,123.81 -378.65,186.03 -656.14,186.03 -156.91,0 -300.81,-18.73 -431.77,-55.75 -131.6,-37.58 -241.23,-78.44 -330.01,-122.5l0 -401.37 19.49 0c112.11,84.99 237.91,152.43 375.97,202.96 138.12,49.97 270.32,74.53 396.81,74.53 156.86,0 280.05,-25.25 368.19,-75.83 88.85,-50.53 132.96,-130.35 132.96,-239.22 0,-83.63 -24,-147.21 -71.92,-189.96 -48.09,-42.8 -140.74,-79.75 -277.54,-110.17 -50.58,-11.71 -116.66,-24.71 -198.41,-39.58 -81.64,-15.55 -156.24,-31.73 -222.99,-49.89 -186.08,-49.28 -318.3,-121.96 -396.13,-217.21 -77.77,-95.94 -116.71,-213.35 -116.71,-352.64 0,-86.93 18.09,-169.29 53.8,-246.38 36.33,-77.84 91.41,-146.52 164.69,-207.49 70.69,-59.61 160.77,-106.32 270.33,-141.37 109.63,-34.95 232.15,-52.5 367.64,-52.5 127.11,0 254.78,15.55 385.06,46.66 129.66,31.17 237.36,68.75 323.53,113.48l0 381.2 -18.78 0c-91.41,-66.82 -202.27,-123.8 -332.55,-169.85 -130.42,-46.1 -258.09,-69.36 -383.82,-69.36 -130.35,0 -240.54,25.32 -330.68,75.14 -89.46,49.97 -134.82,124.57 -134.82,223.05 0,87.55 27.19,153.68 81.69,197.79 53.13,44.05 139.43,80.39 258.63,108.27 65.52,14.92 139.36,30.42 221.13,45.34 81.62,15.63 149.67,29.24 204.19,42.19 165.92,37.58 293.71,103.03 383.82,195.11 90.08,94.07 134.81,217.82 134.81,372.81z"/>
    </g>
   </g>
   <g>
    <g style="clip-path:url(#id0)">
     <image x="4742.07" y="9859.39" width="36.68" height="258.98" xlink:href="WEB SACOLAS - LOGO_Images\WEB SACOLAS - LOGO_ImgID1.png"/>
    </g>
    <path class="fil2" d="M4749.61 10106.5c24.51,-49.27 26.43,-107.88 24.81,-186.27 -0.3,-20.41 0,-9.7 -1.55,-29.49l-6.85 -27.37 -16.41 243.13z"/>
    <g style="clip-path:url(#id1)">
     <image x="4623.07" y="9269.21" width="66.93" height="100.53" xlink:href="WEB SACOLAS - LOGO_Images\WEB SACOLAS - LOGO_ImgID2.png"/>
    </g>
    <path class="fil2" d="M4657.67 9359.22c11.2,-15.94 1.87,10.39 16.73,-31.75 17.31,-49.45 0.13,18.68 3.94,-32.71l-46.37 -17.74c37.66,42.75 29.88,31.05 25.7,82.2z"/>
    <g style="clip-path:url(#id2)">
     <image x="5321.72" y="10563.54" width="34.31" height="67.09" xlink:href="WEB SACOLAS - LOGO_Images\WEB SACOLAS - LOGO_ImgID3.png"/>
    </g>
    <polygon class="fil2" points="5352.15,10624.81 5341.51,10567.51 5326.5,10603.6 "/>
    <g style="clip-path:url(#id3)">
     <image x="8043.95" y="10640.51" width="74.8" height="63.9" xlink:href="WEB SACOLAS - LOGO_Images\WEB SACOLAS - LOGO_ImgID4.png"/>
    </g>
    <path class="fil2" d="M8051.83 10695.53c56.3,-25.64 31.11,-9.7 59.67,-47.6l-59.67 47.6z"/>
    <g style="clip-path:url(#id4)">
     <image x="7696.28" y="10821.04" width="73.88" height="35.65" xlink:href="WEB SACOLAS - LOGO_Images\WEB SACOLAS - LOGO_ImgID5.png"/>
    </g>
    <path class="fil2" d="M7700.71 10851.72l65.38 -26.51c-40.62,7.22 -13.37,0.37 -44.11,11.82 -3.17,1.18 -8.89,10.34 -11.13,6.84 -2.31,-3.29 -6.66,5.29 -10.14,7.85z"/>
    <path class="fil3" d="M6118.55 7517.41l403.23 -164.68 297.33 287.19c0,0 56.61,230.13 53.88,249.55 -2.8,19.4 -351.21,249.55 -351.21,249.55l-308.72 -266.16 -94.51 -355.45zm-1846.46 776.9c0,0 472.15,-232.32 609.03,-271.39 136.87,-39.13 175.71,135.7 175.71,135.7l-27.76 647.1 -465.81 40.32 -257.89 -341.63 -33.28 -210.1zm-450.08 161.14l104.65 -42.68 712.95 -291.24c0.3,21.21 0.74,42.68 1.36,64.4l0.93 30.55c0.74,25.82 1.8,51.96 2.93,78.45l0.69 15.06 0.24 5.09c1.43,29.07 2.98,58.49 4.78,88.36l0.51 9.26 2.12 32.68c-47.55,47.21 -65.84,121.87 -40.63,189.87 33.22,89.79 129.53,134.14 214.95,99.24 85.43,-34.9 127.79,-135.89 94.58,-225.6 -13.02,-35.08 -35.71,-63.26 -63.53,-82.43l-2.11 -25.01 -0.07 -0.2 -0.13 -1.23 -0.05 -1.06c-2.43,-29.43 -4.55,-58.06 -6.59,-86.49l-0.37 -5.29 -0.13 -2.66 -0.07 -0.25c-1.99,-28.81 -3.86,-57.19 -5.47,-85.18l0 -0.32 -0.07 -1.36 -0.37 -6.34c-1.37,-25.82 -2.68,-51.27 -3.86,-76.35l-0.37 -9.14c-1.11,-24.88 -1.99,-49.34 -2.73,-73.42l-0.32 -10.76 1361.36 -556.1 0.76 0.88c14.62,15.24 29.29,30.86 43.98,46.79l7.28 7.71c16.18,17.42 32.54,35.27 49.03,53.43l1.68 1.82 0.25 0.3 5.16 5.73c14.99,16.55 30.06,33.35 45.22,50.39l7.78 8.96c14.57,16.44 29.12,33.05 43.93,49.96l12.58 14.57c12.13,13.93 24.32,28.24 36.5,42.56 -10.51,36.2 -10.07,76.15 4.06,114.16 33.23,89.66 129.47,134.14 214.95,99.18 85.43,-34.85 127.74,-135.89 94.51,-225.67 -25.45,-68.8 -87.97,-110.93 -154.37,-111.11l-3.15 -4.3 -8.72 -12.01c-14.37,-19.35 -28.57,-38.5 -42.75,-57.36l-3.05 -4.05 -15.92 -21.03c-9.83,-12.82 -19.6,-25.5 -29.3,-38.12l-3.05 -3.87 -3 -3.86c-8.02,-10.39 -16.05,-20.6 -24.07,-30.79l-2.98 -3.74 -3 -3.79 -11.99 -15.06 -2.93 -3.73 -3 -3.81 -3.03 -3.66c-11.02,-13.74 -21.9,-27.18 -32.8,-40.57l859.02 -350.9 2861.16 4776.5 -5260.9 2148.84 -1055.02 -5514.2zm1492.89 420.4l4.73 53.19 -0.57 -5.47 -0.42 -5.29 -0.32 -3.18 -3.42 -39.25zm1599.22 -674.8l8.34 9.82 2.93 3.42 -16.07 -18.9 4.8 5.66zm66.5 79.2l-1.35 -1.62 0.12 0 1.23 1.62zm-10.82 -13.07l-1.36 -1.62 1.18 1.38 0.18 0.24z"/>
    <path class="fil4" d="M5146.12 9047.13c-216.84,-2413.52 784.18,-2596.37 2012.45,-812.8 -67.31,58.6 -39.32,26.93 -106.64,85.6 -1169.6,-1519.08 -1913.85,-1462.34 -1753.33,701.31 -106.5,13.68 -45.97,12.2 -152.48,25.89z"/>
    <path class="fil0 str0" d="M6414.11 7395.21c11.01,13.32 21.89,26.81 32.91,40.5l0 0 2.98 3.73 3 3.8 2.91 3.66 12.08 15.14 2.98 3.79 2.93 3.79c8.02,10.14 16.12,20.41 24.07,30.67l0 0 3.05 3.92 2.99 3.8c9.77,12.69 19.61,25.31 29.24,38.2l0 0 16.06 21.1 2.98 3.91c14.25,18.98 28.5,38.08 42.74,57.5l0 0 8.78 11.94 3.1 4.28c66.33,0.2 128.92,42.31 154.37,111.18l0 0c33.28,89.72 -9.03,190.7 -94.51,225.6l0 0c-85.43,34.98 -181.67,-9.52 -214.95,-99.24l0 0c-14.07,-37.95 -14.5,-77.95 -3.99,-114.1l0 0c-12.25,-14.3 -24.46,-28.61 -36.59,-42.61l0 0 -12.56 -14.57c-14.74,-16.79 -29.31,-33.6 -43.86,-49.94l0 0 -7.9 -8.84c-15.13,-17.18 -30.12,-33.84 -45.11,-50.4l0 0 -5.17 -5.84 -0.3 -0.32 -1.62 -1.8c-16.49,-18.11 -32.91,-35.91 -49.1,-53.45l0 0 -7.22 -7.71c-14.74,-15.87 -29.41,-31.43 -43.98,-46.74l0 0 -0.74 -0.86 -1361.43 556.03 0.32 10.83c0.74,24.08 1.67,48.59 2.73,73.4l0 0 0.37 9.16c1.18,25.01 2.49,50.53 3.92,76.4l0 0 0.31 6.28 0.06 1.37 0 0.25c1.62,28.01 3.42,56.36 5.53,85.24l0 0 0 0.24 0.07 2.61 0.5 5.29c1.99,28.5 4.16,57.18 6.54,86.49l0 0 0.12 1.11 0.06 1.18 0 0.32 2.24 24.89c27.81,19.22 50.4,47.4 63.4,82.43l0 0c33.28,89.73 -9.03,190.77 -94.51,225.67l0 0c-85.42,34.96 -181.67,-9.52 -214.9,-99.31l0 0c-25.19,-67.99 -6.97,-142.53 40.63,-189.87l0 0 -2.04 -32.61 -0.64 -9.28c-1.74,-29.85 -3.35,-59.29 -4.72,-88.41l0 0 -0.25 -5.09 -0.69 -15.06c-1.18,-26.44 -2.17,-52.63 -2.98,-78.45l0 0 -0.88 -30.55c-0.67,-21.65 -1.04,-43.12 -1.36,-64.33l0 0 -817.65 333.92 1055 5514.27 5260.87 -2148.91 -2861.04 -4776.5 -859.15 350.9zm53.76 396.75l-2.88 -3.42 -8.32 -9.76 -4.85 -5.66 16.05 18.84zm44.42 53.01l-0.14 -0.32 -1.23 -1.35 1.37 1.67zm9.51 11.32l1.38 1.63 -1.31 -1.63 -0.07 0z"/>
    <path class="fil5" d="M5295.02 6622.36c-467.69,0.05 -727.76,652.08 -606.44,2002.43l0 0c106.53,-13.73 46.05,-12.18 152.56,-25.82l0 0c-160.58,-2163.7 583.72,-2220.38 1753.34,-701.3l0 0c67.25,-58.68 39.26,-26.93 106.57,-85.68 -540.97,-785.53 -1037.83,-1189.58 -1405.97,-1189.63l0 0c-0.06,0 -0.06,0 -0.06,0l0 0z"/>
    <polygon class="fil5" points="4873.43,13969.65 10134.35,11820.81 10591.84,12243.08 5321.64,14391.91 "/>
    <path class="fil4" d="M4873.43 13969.65l5260.92 -2148.84 188.15 278.18c-1733.31,772.36 -3403.69,1459.79 -5180.54,2134.09l-268.53 -263.43z"/>
    <path class="fil6" d="M5149.51 14230.19l2690.44 -1164.77 2478.9 -971.88 263.92 153.24c-1733.29,772.36 -3483.19,1470.37 -5260.04,2144.67l-173.22 -161.26z"/>
    <path class="fil4 str1" d="M5149.51 14230.19l2690.44 -1164.77 2478.9 -971.88 263.92 153.24c-1733.29,772.36 -3483.19,1470.37 -5260.04,2144.67l-173.22 -161.26z"/>
    <polygon class="fil7" points="10134.32,11820.81 7274.04,7046.17 7730.71,7466.59 10591.87,12243.08 "/>
    <path class="fil4" d="M10259.48 11838.86c-918.12,-1473.18 -1796.49,-2960.46 -2658.64,-4491.92l129.85 119.65 2861.17 4776.49 -332.38 -404.22z"/>
    <path class="fil8" d="M6066.61 9558.6c18.98,0.61 20.28,-0.57 25.62,21.64l-25.62 14.56c-7.53,-20.28 -5.61,-22.34 0,-36.2zm50.7 -1.01c-3.86,-0.93 -6.42,10.34 -11.95,-8.76 -3.85,-13.44 1.12,-8.35 4.35,-12.38l25.27 -8.59c16.67,-19.98 -8.21,-13.32 19.28,-32.1l16.12 -4.43c20.28,22.35 4.41,6.92 4.48,15.24l-17.79 14.07c0.19,26.37 1.3,29.42 -26.94,42.74l-12.82 -5.79zm618.44 -384.93c-7.91,-18.04 -10.89,-19.85 -7.91,-37.63 7.29,-43.32 4.73,-54.64 67,-60.86 12.21,41.44 13.64,22.09 -16.73,68.88 -13.44,20.71 -11.32,22.08 -42.36,29.61zm142.73 -36.84c-3.3,13.19 -38.96,23.09 -51.71,21.73 -5.67,-9.35 -4.41,-1.13 -7.41,-16.24 -2.36,-11.64 0.07,-11.96 0.49,-14.75 -6.58,-19.04 -1.3,-19.47 15.75,-28.25 2.31,-8.84 1.92,-5.98 -0.44,-18.54 -11.57,-14.81 -44.28,-11.07 -65.69,-22.71 -14.94,-34.83 3.35,-47.16 35.52,-62.59 12.62,9.84 14.37,17.86 24.26,32.54 11.57,16.98 51.34,47.6 76.35,50.28l19.47 3.29c-3.99,41.06 -22.34,43.18 -46.59,55.24zm-1215.48 -126.54c-0.81,1.06 -1.74,2.42 -2.31,3.18l-7.95 8.2c-3.18,2.75 -6.97,4.67 -10.26,7.16 -24.71,11.88 -67.69,54.93 -90.36,75.34 -49.01,44.05 -107.24,113.12 -148.19,166.75 -11.25,14.8 -56.86,75.22 -61.59,92.89 95.63,-38.52 35.22,-9.84 134.64,-26.45 27.81,-4.61 16.86,-0.67 33.52,15.5l83.69 -29.68 -18.98 -18.98c-25.01,4.67 -54.3,22.22 -78.57,20.6l10.64 -15.43 -13.57 -23.14 -66.33 25.62 4.92 -10.88c2,-9.08 -1.3,-5.48 8.22,-16.49 38.57,-41.07 -0.88,-51.95 108.31,-85.3l54.63 32.48c53.76,-18.55 60.6,-11.14 74.16,-63.28l31.11 2.86c-15.62,69.01 -44.3,69.06 -85.8,86.93l22.4 41.8 75.66 -31.54 2.12 -25.39c39.75,-19.65 62.84,-13.87 43.54,-56.86l-28.8 3.86c-13.31,-54.94 26.07,-44.87 64.14,-66.95l37.59 -11.83c8.52,13.44 2.61,2.19 0.24,9.15 -9.96,17.55 -14.81,29.56 -26.56,50.41l18.29 29.91 37.89 -7.02c13.19,-8.47 7.6,1.36 10.21,-9.77l-8.59 -19.72 -11.52 -29.19c12.08,-28.67 76.91,-79.45 116.17,-87.84 14.68,-3.13 119.89,3.79 140.35,4.85l18.73 44.79 39.33 -4.6c12.01,60.91 -25.77,45.48 -49.84,63.53 -9.77,12.25 -5.66,2.53 -6.67,20.21 2.93,12.13 1.63,3.81 1.94,13.56 0.06,1 -0.24,4.23 -0.76,3.81 -0.49,-0.44 -0.79,2.36 -1.18,3.54l-1.11 8.27 -13.38 6.04c-5.03,0.81 -10.64,2.31 -16.05,2.61l-11.33 -0.5c-1.18,-1.25 -2.61,-0.49 -3.91,-0.69l-66.38 12.33 -19.17 1.92c-13.69,-16.17 -5.29,-3.1 1.25,-10.63l70.42 -80.33c-15.43,-7.15 -29.29,-12.19 -47.34,-15.73 -21.04,8.09 -73.05,31.97 -82.69,47.52 -25.87,41.26 3.3,31.56 -55.56,61.48 14.13,26.19 6.97,11.63 26.19,23.14 -8.46,10.27 -15.48,13.12 -27.49,19.67l2.68 21.02 -28.75 12.57 -9.64 -18.55 -11.2 -10.39 -10.96 4.99c-34.7,19.48 -103.27,105.28 -123.5,139 28.44,69.55 72.98,49.82 136.75,35.15l28.38 71.47 26.5 -14.62 1.68 -17.03c3.17,-17.5 -1.87,-43.93 11.32,-57.18 14.99,-15.01 35.54,-24.71 49.96,-43.07l-29.48 -78.39c-1.19,-15.43 13.24,-35.89 21.9,-48.46 21.02,-9.21 76.28,-14.68 101.16,-17.68l13.37 42.31 6.17 13.32 24.5 -9.65c9.89,-9.01 24.39,-25.18 34.23,-36.33 2.24,-4.41 1.11,-3.35 5.96,-9.4 3.99,-5.15 -3.15,1.99 6.42,-5.34 11.2,-3.05 17.67,23.51 21.1,33.52l27.05 37.83 49.72 8.22 17.1 46.05c-13.31,11.25 -32.34,25.06 -37.51,38.57 17.48,21.52 38.39,4.85 71.55,14.25l11.94 30.79c-20.65,9.83 -78.64,13.37 -97.05,11.45l-9.53 -18.85 12.88 -24.52c-8.2,-21.83 -6.03,-21.71 -28.8,-16.61l-2.49 22.1 -53.51 30.91c-31.79,-39.63 -68.12,-5.48 -68.74,7.96l7.78 21.73 47.08 -4.31c-1.92,10.58 -7.14,22.52 -10.88,32.49 -13.44,-5.29 -17.79,-6.79 -36.96,-1.5 -19.72,35.02 -28.36,46.22 -31.78,77.33 -0.13,0.94 0,2.31 -0.13,3.25 -0.24,0.92 -0.38,2.24 -0.68,3.16 -1.75,5.73 -14.25,19.36 -19.55,25.39 -48.34,56.05 -39.01,42.86 -64.58,108.08 -4.73,12.18 -20.16,46.1 -20.09,55.67 0.18,44.31 20.21,19.72 -11.14,63.21 -26.63,36.84 -52.26,73.05 -61.15,111.13l32.59 76.03 -62.52 -2.81 -18.29 -43.8c-27.88,5.78 -70.06,25.69 -98.18,36.89 -49.1,19.49 -47.4,14.13 -77.53,48.91 -20.15,23.28 -38.76,33.84 -41.12,63.77 -2.12,27.07 -10.71,54.64 -0.94,83.24l7.23 31.61c9.46,11.07 23.02,26.08 35.52,31.86 17.48,1.93 45.12,-7.77 64.52,-15.8l63.96 -90.03c2.54,-12.01 -6.35,-4.8 9.33,-11.94l10.34 12.63c15.92,31.6 2.91,50.88 3.67,83.17 23.58,-4.97 55.74,-15.93 76.45,-12.38 22.4,20.35 37.14,78.09 55.18,108.27l111.57 -24.27 30.86 -97.19 20.83 -7.22c3.67,-0.86 12.89,-3.72 16.24,-4.28 1.38,-0.25 5.67,-0.94 7.04,-1.01 15.86,-0.24 3.79,0.13 10.95,1.87 37.81,-12.18 44.85,1.01 71.98,18.54l71.25 -31.48 -5.05 -24.52c25.95,-11.32 9.58,-2.78 17.43,1.01 35.71,6.03 25.18,-4.48 57.67,19.1 17.85,12.94 38.2,27.25 54.25,38.32l78.83 -29.68c59.22,30.3 62.22,63.23 83.98,101.23 24.47,0.87 72.61,1.75 95.95,-1.37 27.12,-3.6 84.49,-32.91 117.21,-42.37 15.55,6.6 30.93,21.54 46.29,32.42 16.69,11.89 39.51,6.1 63.53,2.68 32.98,82.19 -31.04,87.9 -5.42,178.37 9.9,34.91 18.41,66.95 28.93,101.66 7.97,26.31 5.66,23.4 -5.15,41.5 -29.51,49.52 -10.27,32.91 -97.76,67.07 -15.49,89.1 13.75,54.44 43,130.84 -10.07,16.05 -40.76,130.53 -42.56,153.74 -3.23,42.38 -11.32,38.88 -40.88,70.73 -49.58,53.39 -55.93,36.78 -70.05,57.82l5.41 18.97 35.96 -4.23c15.63,38.57 -6.65,36.26 -9.52,67.44l26.38 16.24 37.51 -13.38c12.51,34.28 7.41,49.47 16.44,77.33l9.26 14.69 64.41 18.72 4.53 28.07c-17.42,8.7 -33.97,14.06 -50.7,20.41 -27.75,10.56 -25.33,11.32 -46.05,2.66 -102.4,-42.8 -39.26,3.62 -140.3,-75.39 -36.95,-28.87 -36.65,-21.54 -55.36,-71.55l-22.15 -69.01c-10.02,-4.61 -57.37,-33.21 -62.22,-39.51 -7.97,-10.26 -16.05,-68.62 -23.14,-87.97 -4.43,-14.62 -0.93,-12.19 -16.07,-19.91 -24.24,8.96 -32.71,-40.12 -54.37,-94.76 -54.81,-137.99 -30.86,-119.45 -112.29,-138.36 -35.16,-8.16 -33.91,-10.7 -77.35,-2.11 -33.21,-35.17 1.62,-24.34 -75.77,-67.32 -18.6,-10.41 -27.88,-14.76 -43.86,-24.39 -8.66,-5.24 -33.35,-20.55 -42.25,-21.78 -7.09,-3.62 -8.35,-1.38 -12.31,-9.9 -8.54,-18.36 -0.57,-11.69 0.24,-14.62 -5.29,-15.43 -5.16,-27.74 -11.32,-46.54 -6.22,-18.98 -13.51,-37.58 -19.05,-56.61 7.98,-16.98 35.59,-59.36 47.53,-73.74l-16.79 -33.84c-2.98,-1.99 -1.42,2.56 -9.15,-7.59 -2.91,-3.79 -3.35,-5.78 -5.41,-9.64 -7.83,-14.92 -2.86,-10.76 -15.86,-23.21 -121.95,37.53 -70.86,38.83 -187.03,-16.99 -46.28,-22.27 -49.33,-1.99 -116.15,1.82l-9.9 -32.29 -42.8 11c-0.07,1.26 -0.44,2 -0.07,3.55 0.51,2.06 -0.25,5.66 -0.3,6.72 -0.07,0.81 -0.25,2.43 -0.37,3.24 0,0.67 -0.37,2.37 -0.44,2.98 -0.13,0.62 -0.32,2 -0.62,2.93l-87.17 12.14c-1.12,0.24 -11.7,3.59 -13.57,3.72 -25.32,2.68 -2.66,1.55 -14.74,-1.36 -10.64,-2.31 -63.46,-38.84 -74.04,-51.89l3.05 -38.71c-37.83,-30.86 -103.52,-61.16 -120.75,-90.21 -11.34,-19.1 -20.35,-34.65 -30.99,-53.07l-26.95 10.27 10.39 19.79c39.01,97.98 98.92,59.47 110.12,135.81 -47.58,17.92 -44.48,11.01 -102.96,-35.59 -23.51,-18.73 -23.83,-13.56 -36.58,-46.22 -9.71,-24.59 -18.85,-49.65 -29.93,-73.61l-60.47 -6.78c-14.32,-10.46 -18.11,-30.98 -27.69,-53.38 0.32,14.3 1.5,-1.8 -4.97,8.34 9.33,119.45 1.74,134.69 26.38,270.89 52.43,290.24 221.3,571.7 429.04,757.55 241.21,215.64 552.17,347.79 893.31,355.19 17.23,-3.35 1.8,-1.87 8.83,-1.37 8.65,0.63 6.23,0.63 11.13,2.24 72.05,-0.06 140.56,-5.28 215.46,-15.86 36.97,-5.22 77.09,-12.33 113.92,-21.71 20.03,-5.17 112.99,-32.73 122.69,-32.61l148.2 -58.92c16,-17.55 76.22,-42.36 102.91,-57.92 36.15,-21.02 65.64,-39.26 98.67,-62.59 58.8,-41.5 114.43,-86.54 163.51,-134.39 0.63,-1.13 0.88,-3.91 1.94,-3.22 0.99,0.67 1.48,-2.51 2.29,-3.18 7.16,-6.54 0.49,-1.62 10.9,-8.09l64.76 -67.2 11.27 -19.71c33.9,-13.2 132.45,-182.06 159.94,-226.54 27.51,-44.67 107.51,-223.49 105.03,-252.09l-37.64 14.47c-37.58,-85.97 -15.55,-73.34 -69.93,-106.06 -52.13,-31.36 -43.74,-35.1 -71.18,-104.72 -22.27,-56.67 -57.49,-11.13 -78.95,-82.24 -5.67,-18.61 8.27,-85.8 7.84,-112.19 -15.38,-18.16 -36.2,-30.98 -54.51,-46.71 -48.09,-41.38 -92.94,-60.85 -103.9,-102.42 -6.15,-23.14 -16.98,-68.5 -28.05,-87.28 -126.24,41.92 -89.23,6.46 -123.19,6.33 -67,22.52 -45.05,15.38 -72.24,57 -25.5,11.7 -52.75,20.21 -78.02,31.36 -8.52,3.79 -45.91,36.95 -69.61,37.88l-177.69 -87.77 -44.13 -111.94 17.99 -15.24 -8.21 -30.24 -6.11 -9.21c-4.65,2.24 -10.38,4.8 -13.61,5.1 -8.96,0.81 -4.31,0.51 -10.71,-1.24l-29.11 -40.26 100.79 -154.85 -26.93 -71.92c80.8,-119.34 100.96,-58.74 147.13,-107.33 46.16,-48.59 -0.44,-17.23 72.05,-54 24.57,-12.51 71.92,-40.25 96.93,-43.42l27.63 68.18c25.14,1.62 59.79,-5.29 86.67,-9.33 14.18,-2.12 28.36,-5.42 41.8,-3.42 17.54,2.55 18.8,7.83 42.62,-1.68l-15.06 -40.63 14.13 -8.77c79.01,-27.76 36.28,-27.26 109.5,-7.78 29,7.71 26.88,3.73 59.61,-9.4 22.7,-9.08 47.41,-16.42 68.06,-29.48 -6.67,-21.96 -58.68,-76.16 -74.35,-92.28l-64.84 26.32c-30.17,-12.19 -50.88,-14.8 -65.81,-58.36l-12.95 -15.17 -8.39 3.67c-21.1,34.83 -21.22,-9.03 -8.4,98.6 -18.48,-2.36 -31.99,-11.37 -54.14,-22.08 -24.52,-11.64 -23.83,-25.57 -37.64,-56.43 -20.03,-6.16 -71.42,-22.28 -86.17,-33.53l-55.8 21.89c18.78,29.19 27.06,41.94 56.42,46.17 26.21,3.86 49.91,2.04 71.43,13.44 1.18,27.69 -16.42,-12.7 9.2,54.88 -24.69,25.7 -42.36,41.18 -73.22,20.34 -9.46,-3.6 0.19,11.94 -11.33,-10.02l47.48 -18.66 2.73 -16c-26.01,-3.86 -49.71,-10.07 -74.84,-16.17 -37.46,-9.03 -39.95,1.62 -67,-33.35 -9.46,8.4 -21.91,36.4 -28.43,48.29l-44.55 9.45c-10.58,47.85 -29.63,81.62 -28.94,122.31 0.49,29.93 -18.42,32.11 -71.04,53.7 -74.36,30.49 -78.71,-6.47 -97.5,-38.89 -12.45,-21.21 -9.71,-27 -12.2,-47.09l2.49 -14.19c19.98,-8.96 39.5,-29.17 57.49,-35.03 18.61,-5.91 45.66,-6.77 67.5,-13.24l-7.39 -34.85 -29.44 -0.69c-21.09,-70.54 -16.79,-58.36 50.78,-97.49 0.74,-11.89 12.99,-73.6 20.4,-82.24 22.4,-26.21 73.91,-30.44 102.34,-44.8l-31.35 -55.74 -45.42 38.5c-1.18,-0.55 -2.8,-1.12 -3.54,-1.68 -0.64,-0.56 -2.44,-1.43 -3.25,-2.12 -14.3,-12.06 5.66,12.26 -7.9,-10.7 -34.78,-33.21 -11.88,-15.05 -51.88,-17.11l-19.67 -26.44c29.19,-83.56 75.73,-58.11 65.96,-116.59l-155.06 -44.74c-40,-8.96 -125.92,-29.24 -162.69,-27.87 -10.76,0.69 -3.55,0.87 -11.94,-0.56 -0.81,-0.12 -2.31,-0.12 -3.37,-1.36 -0.99,-1.25 -2.04,-1.18 -3.03,-1.82l-82.26 -2.29c-4.16,0.05 -5.98,0.37 -10.63,-0.12 -4.99,-0.5 -7.9,-1.82 -10.58,-2.56 -54.62,3.05 -116.67,0 -174.66,8.27 -50.95,7.23 -139.92,16.86 -187.82,36.28 -9.95,2.86 -19.72,6.79 -27.69,9.15 -3.42,1.06 -12.56,3.04 -15.93,3.42 -10.7,1.06 -7.83,-0.19 -11.12,-0.68 -14.2,6.35 -21.17,9.77 -33.85,8.89l-142.85 56.8c-8.59,8.52 -118.66,63.6 -141.99,77.58 -40.99,24.64 -91.02,57.37 -125.24,86.49z"/>
   </g>
  </g>
 </g>
</svg>
